<svg width="515" height="515" viewBox="0 0 515 515" fill="none" xmlns="http://www.w3.org/2000/svg">
<path d="M181.063 91.5557C125.649 91.5557 80.1113 137.033 80.1113 192.507V333.937C80.1113 389.351 125.588 434.889 181.063 434.889H322.493C377.907 434.889 423.445 389.412 423.445 333.937V192.507C423.445 137.094 377.968 91.5557 322.493 91.5557H181.063ZM181.063 122.768H322.493C361.081 122.768 392.233 153.919 392.233 192.507V333.937C392.233 372.526 361.081 403.677 322.493 403.677H181.063C142.475 403.677 111.323 372.526 111.323 333.937V192.507C111.323 153.919 142.475 122.768 181.063 122.768ZM343.951 156.906C336.087 156.906 329.808 163.185 329.808 171.049C329.808 178.913 336.087 185.192 343.951 185.192C351.815 185.192 358.094 178.913 358.094 171.049C358.094 163.185 351.815 156.906 343.951 156.906ZM251.778 169.586C200.266 169.586 158.142 211.71 158.142 263.222C158.142 314.735 200.266 356.859 251.778 356.859C303.29 356.859 345.414 314.735 345.414 263.222C345.414 211.71 303.29 169.586 251.778 169.586ZM251.778 200.798C286.465 200.798 314.202 228.535 314.202 263.222C314.202 297.909 286.465 325.647 251.778 325.647C217.091 325.647 189.354 297.909 189.354 263.222C189.354 228.535 217.091 200.798 251.778 200.798Z" fill="black"/>
</svg>
