<svg width="515" height="515" viewBox="0 0 515 515" fill="none" xmlns="http://www.w3.org/2000/svg">
<path d="M392.233 91.5557H111.323C94.0788 91.5557 80.1113 105.523 80.1113 122.768V403.677C80.1113 420.922 94.0788 434.889 111.323 434.889H392.233C409.477 434.889 423.445 420.922 423.445 403.677V122.768C423.445 105.523 409.477 91.5557 392.233 91.5557ZM188.636 372.465H142.598V224.332H188.636V372.465ZM165.149 203.155C150.307 203.155 138.306 191.122 138.306 176.312C138.306 161.502 150.323 149.485 165.149 149.485C179.943 149.485 191.976 161.518 191.976 176.312C191.976 191.122 179.943 203.155 165.149 203.155ZM361.083 372.465H315.076V300.427C315.076 283.245 314.764 261.147 291.152 261.147C267.197 261.147 263.514 279.858 263.514 299.179V372.465H217.507V224.332H261.672V244.573H262.296C268.445 232.931 283.458 220.649 305.853 220.649C352.468 220.649 361.083 251.331 361.083 291.22V372.465Z" fill="black"/>
</svg>
